<?xml version="1.0" encoding="UTF-8"?>
<svg xmlns="http://www.w3.org/2000/svg" version="1.1" viewBox="0 0 1920 1080">
  <defs>
    <style>
      .cls-1 {
        fill: #057b93;
      }

      .cls-2 {
        fill: #cfcfcf;
      }
    </style>
  </defs>
  <!-- Generator: Adobe Illustrator 28.6.0, SVG Export Plug-In . SVG Version: 1.2.0 Build 709)  -->
  <g>
    <g id="Layer_1">
      <g>
        <g>
          <path class="cls-2" d="M428.46,799.92c-.06-1.31-.17-2.63-.17-3.94,0-30.78.03-61.56-.07-92.34,0-2.86.86-4.45,3.34-5.93,33.79-20.23,67.52-40.59,101.26-60.9,1-.6,2.04-1.12,3.49-1.92.07,1.57.17,2.71.17,3.85,0,30.42-.03,60.84.07,91.26,0,2.75-.84,4.25-3.19,5.68-33.72,20.58-67.38,41.27-101.04,61.96-1.1.67-2.09,1.52-3.13,2.29h-.72Z"/>
          <polygon class="cls-2" points="653.94 433.37 428.63 572.13 428.21 475.11 653.44 332.83 653.94 433.37"/>
          <path class="cls-1" d="M428.63,572.13l-138.75-80.53-.17,294.89s-54.36-39.62-79.87-57.89c-2.58-1.84-3.38-3.77-3.38-6.82.07-128.17,0-389.56,0-389.56l221.75,142.89.41,97.03Z"/>
          <path class="cls-2" d="M428.28,688.48v-3.93c0-30.65.04-61.3-.07-91.95-.01-2.78.91-4.23,3.22-5.66,72.94-45.22,145.82-90.52,218.72-135.8,1.09-.68,2.21-1.3,3.76-2.2.09,1.23.19,2,.19,2.76,0,31.25-.04,62.5.1,93.75.01,2.76-1.39,3.76-3.25,4.92-57.66,35.8-115.3,71.61-172.95,107.41-15.25,9.47-30.49,18.96-45.75,28.43-1.09.68-2.23,1.28-3.97,2.27Z"/>
          <path class="cls-1" d="M194.49,714.61s-32.71-19.75-47.65-28.82c-1.63-.99-2.47-1.99-2.62-3.54-.04-.37.03-2.74.03-5.34.07-36.71-.16-306.67-.09-307.92.16-2.78.83-4.33,3.15-5.78,14.54-9.03,47.71-30.45,47.71-30.45,0,0-.07,50.1-.1,72.25-.11,90.66-.2,181.32-.31,271.98-.01,11.26-.14,37.62-.14,37.62Z"/>
          <path class="cls-1" d="M132.29,393.38l-1.18,272.12s-33.51-20.64-49.07-30.29c-1.59-.99-2.45-2.18-2.31-4.08.07-.95,0-1.91,0-2.87,0-66.58.07-201.66,0-202.61-.15-1.91.69-3.04,2.37-3.97,16.09-8.99,50.19-28.3,50.19-28.3Z"/>
          <path class="cls-1" d="M68.12,472.87v103.51s-33.9-20.9-49.73-30.57c-1.89-1.15-2.53-2.57-2.52-4.7.06-11.37.06-22.74,0-34.12,0-2.12.66-3.51,2.59-4.65,15.79-9.26,49.64-29.48,49.64-29.48Z"/>
          <g>
            <path class="cls-2" d="M1900.53,574.23c-1.32-3.68-2.35-7.49-4-11.02-7.27-15.51-19.24-24.87-36.4-27.24-.2-.03-.37-.23-.85-.54,1.17-.11,2.07-.28,2.97-.28,12.06-.02,24.12-.02,36.17,0,.7,0,1.41.18,2.11.28v38.81Z"/>
            <path class="cls-2" d="M1428.15,705.03c-8.96,0-17.93.2-26.88-.08-4.5-.14-8.5-2.3-12.18-4.89-5.4-3.8-9.38-8.84-12.63-14.51-3.48-6.06-5.82-12.57-7.81-19.24-10.25-34.27-20.53-68.53-30.79-102.8-1.52-5.09-3.71-9.85-6.72-14.23-3.75-5.45-8.39-9.81-14.82-11.96-.41-.14-.78-.4-1.84-.96,1.31-.08,1.85-.14,2.39-.15,6.83,0,13.65-.07,20.48,0,16.73.18,31.67,10.12,37.54,25.85,4.85,12.99,9.06,26.23,13.15,39.48,6.64,21.49,12.82,43.11,19.46,64.6,2.18,7.07,5.14,13.91,7.83,20.82.82,2.11,1.87,4.15,2.94,6.15,2.45,4.57,5.31,8.81,9.89,11.92Z"/>
            <path class="cls-2" d="M750.93,536.4c.63-.29.93-.55,1.26-.56,10.27-.52,20.55-1.63,30.79.3,12.87,2.42,22.61,9.44,28.13,21.22,11.56,24.7,22.29,49.77,31.2,75.59,3.73,10.81,5.63,21.98,6.77,33.32.77,7.61,1.64,15.23,2.9,22.77,1.07,6.42,3.02,12.59,8.91,16.88-2.29-.42-4.62-.69-6.86-1.29-7.59-2.04-13.92-6.26-19.49-11.68-6.77-6.6-12.06-14.31-15.83-22.91-6.87-15.66-13.5-31.42-19.99-47.24-6.62-16.15-12.87-32.46-19.47-48.62-2.03-4.97-4.66-9.7-7.11-14.49-1.14-2.23-2.44-4.4-3.8-6.5-4.45-6.86-9.24-13.4-17.4-16.77Z"/>
            <path class="cls-2" d="M1724.81,704.9c-12.83.75-24.05-2.78-32.58-12.6-7.89-9.08-12.03-19.79-12.06-31.88-.07-29.69-.02-59.39-.02-89.08,0-6.84-.5-13.63-2.21-20.29-1.51-5.88-3.73-11.35-9.41-15.5,1.63,0,2.63-.11,3.61.02,22.81,2.86,38.01,17.48,41.43,40.23.8,5.29.71,10.72.93,16.09.1,2.27-.07,4.55-.07,6.82,0,27.78,0,55.56-.01,83.34,0,4.49.86,8.81,2.42,12.98,1.54,4.13,4.04,7.53,7.99,9.88Z"/>
            <path class="cls-2" d="M1581.08,704.88c-13.33.8-24.87-3.07-33.46-13.6-7.34-8.99-11.19-19.42-11.19-31.12-.01-29.58,0-59.15,0-88.73,0-7.2-.54-14.36-2.47-21.33-1.52-5.5-3.72-10.62-9.25-14.56,1.66,0,2.65-.1,3.6.01,22.72,2.75,38.05,17.43,41.51,40.15.82,5.41.68,10.96.95,16.45.06,1.19-.06,2.39-.06,3.59,0,28.74-.06,57.47.07,86.21.02,3.66.72,7.39,1.65,10.94,1.3,4.98,3.86,9.26,8.67,11.99Z"/>
            <path class="cls-2" d="M1142.97,535.67c16.9,1.27,30.63,7.86,38.89,23.44,3.99,7.53,5.91,15.65,6.36,24.1.22,4.18,0,8.38,0,12.56,0,28.73-.03,57.47.04,86.2,0,2.85.35,5.75.96,8.53,1.29,5.83,3.7,11.06,10.01,14.45-5.27.66-9.58.09-13.83-.95-10.4-2.56-18.36-8.54-23.87-17.68-4.97-8.25-7.72-17.13-7.69-26.89.09-29.69.03-59.38.04-89.08,0-7.22-.7-14.34-2.75-21.28-1.52-5.12-3.69-9.86-8.15-13.4Z"/>
            <path class="cls-2" d="M865.7,536.87c18.12,1.32,32.25,8.88,40.02,26.06,3.81,8.42,5.19,17.36,5.16,26.57-.09,26.93-.11,53.87-.16,80.8,0,4.19-.25,8.4.07,12.56.3,3.78.95,7.59,1.95,11.24,1.23,4.5,3.86,8.18,8.79,10.73-1.36.22-2.09.46-2.82.45-17.4-.21-29.87-8.2-37.28-23.92-3.25-6.89-4.88-14.14-4.84-21.87.14-28.97.06-57.94.05-86.91,0-7.32-.54-14.6-2.56-21.68-1.53-5.37-3.68-10.39-8.39-14.04Z"/>
            <path class="cls-2" d="M1798.04,535.54c18.62-.28,35.39,11.36,42.08,28.74,3.45,8.96,4.63,18.29,4.15,27.85-.08,1.55-.18,3.11-.18,4.66-.01,28.14-.05,56.28.04,84.42.01,3.32.45,6.7,1.17,9.94,1.26,5.62,3.73,10.58,9.17,13.71-2.94.68-5.86.43-8.71.02-12.21-1.75-21.75-7.79-28.2-18.35-4.94-8.11-7.76-16.84-7.72-26.51.12-29.7.06-59.39.03-89.09,0-7.33-.72-14.59-2.78-21.65-1.53-5.24-3.75-10.08-9.06-13.73Z"/>
            <path class="cls-2" d="M1008.94,704.89c-12.46.8-23.46-2.6-31.93-12.06-8.03-8.97-12.27-19.64-12.29-31.75-.07-29.7-.03-59.39-.02-89.09,0-6.61-.61-13.16-2.2-19.58-1.48-5.98-3.68-11.62-8.9-15.89,2.17.29,4.36.49,6.51.89,19.58,3.61,31.68,15.28,36.7,34.4,1.83,6.99,2.49,14.13,1.92,21.36-.09,1.19-.1,2.39-.1,3.59,0,28.38-.08,56.76.08,85.14.02,4,.95,8.06,1.96,11.96,1.21,4.65,3.87,8.45,8.27,11.03Z"/>
            <path class="cls-2" d="M1287.84,664.11c11.58-.03,21.06,9.33,21.16,20.88.1,11.74-9.36,21.36-21.04,21.39-11.64.03-21.31-9.66-21.22-21.27.09-11.54,9.56-20.97,21.1-21Z"/>
            <path class="cls-2" d="M752.79,705.55c10.37-3.12,16.36-10.56,20.4-19.95,3.54-8.21,5.2-16.89,6.09-25.74.11-1.06.18-2.13.3-3.54,1.34,1.09.96,2.36,1.07,3.42.93,8.36,2.51,16.55,5.8,24.34,2.31,5.46,5.38,10.4,9.72,14.5,3.26,3.08,7.14,5.1,11.25,6.97h-54.65Z"/>
            <path class="cls-2" d="M1624.41,644.94c-6.54-16.21-20.28-22.12-35.6-26.33,1.26-.15,2.51-.34,3.77-.46,5.28-.48,10.36-1.75,15.13-4.08,7.83-3.83,13.07-9.86,15.47-18.29.28-1,.6-1.99,1.23-2.93v52.09Z"/>
            <path class="cls-2" d="M1013.97,618.65c2.93-.42,5.94-.55,8.78-1.33,3.89-1.07,7.83-2.27,11.42-4.07,7.08-3.54,11.62-9.41,13.94-16.99.34-1.12.65-2.24,1.3-3.33v52.89c-6.42-17.07-20.16-23-35.43-27.18Z"/>
            <path class="cls-2" d="M1068.82,668.05v37.47h-43.12c22.81-2.79,36.2-16.35,43.12-37.47Z"/>
            <path class="cls-2" d="M1094.4,573.34v-37.59c2.8-.76,36.49-.93,41.83-.1-22.86,3.55-35.37,17.32-41.83,37.69Z"/>
            <path class="cls-2" d="M1244.87,535.4v37.66c-6.55-20.33-19.07-33.95-40.93-37.66h40.93Z"/>
            <path class="cls-2" d="M1602.96,535.28h41.01c.05,12.66.01,25.22-.29,37.91-6.42-20.46-18.95-34.07-40.72-37.91Z"/>
            <path class="cls-2" d="M1750.39,572.94v-37.19c2.96-.8,37.69-.87,41.45-.01-22.3,3.35-34.84,16.94-41.45,37.21Z"/>
            <path class="cls-2" d="M1068.82,573.07c-6.59-20.42-19.06-33.92-40.93-37.26,2.47-.84,36.57-1.03,40.93-.21v37.48Z"/>
          </g>
        </g>
        <g>
          <path class="cls-1" d="M839.3,359.58c-.72-1.08-1.12-1.69-1.19-1.84,0-.07-.07-.61-.21-1.63-.37-2.67-1.85-4.66-4.45-5.96-2.6-1.52-5.64-1.95-9.11-1.3-3.4.65-6.18,2.13-8.35,4.44-2.17,2.46-3.07,4.99-2.71,7.59.22,2.17.61,3.91,1.19,5.21.29.94,1.05,2.31,2.28,4.12,1.52,2.46,3.87,3.9,7.05,4.34,3.18.58,6.29.14,9.32-1.3,3.18-1.59,5.35-3.65,6.51-6.18,1.16-2.75,1.05-5.25-.33-7.49ZM872.16,359.58c-.72-1.08-1.12-1.69-1.19-1.84,0-.07-.07-.61-.22-1.63-.36-2.67-1.84-4.66-4.44-5.96-2.61-1.52-5.64-1.95-9.11-1.3-3.4.65-6.18,2.13-8.35,4.44-2.17,2.46-3.08,4.99-2.71,7.59.21,2.17.61,3.91,1.19,5.21.29.94,1.05,2.31,2.28,4.12,1.51,2.46,3.86,3.9,7.05,4.34,3.18.58,6.29.14,9.32-1.3,3.18-1.59,5.35-3.65,6.51-6.18,1.15-2.75,1.05-5.25-.33-7.49Z"/>
          <path class="cls-1" d="M1026.04,476.81c-.72-1.08-1.12-1.7-1.19-1.84,0-.08-.07-.62-.22-1.63-.36-2.68-1.84-4.66-4.44-5.96-2.61-1.52-5.64-1.96-9.11-1.31-3.4.65-6.18,2.14-8.35,4.45-2.17,2.46-3.08,4.99-2.71,7.59.21,2.17.61,3.91,1.19,5.21.29.93,1.05,2.31,2.28,4.12,1.51,2.45,3.86,3.9,7.05,4.33,3.18.58,6.29.15,9.32-1.3,3.18-1.59,5.35-3.65,6.51-6.18,1.15-2.75,1.05-5.24-.33-7.48ZM993.18,476.81c-.72-1.08-1.12-1.7-1.19-1.84,0-.08-.07-.62-.21-1.63-.37-2.68-1.85-4.66-4.45-5.96-2.6-1.52-5.64-1.96-9.11-1.31-3.4.65-6.18,2.14-8.35,4.45-2.17,2.46-3.07,4.99-2.71,7.59.22,2.17.61,3.91,1.19,5.21.29.93,1.05,2.31,2.28,4.12,1.52,2.45,3.87,3.9,7.05,4.33,3.18.58,6.29.15,9.32-1.3,3.18-1.59,5.35-3.65,6.51-6.18,1.16-2.75,1.05-5.24-.33-7.48Z"/>
          <path class="cls-1" d="M1248.24,331.82c-.72-1.08-1.12-1.7-1.19-1.84,0-.07-.07-.62-.22-1.63-.36-2.67-1.84-4.66-4.44-5.96-2.61-1.52-5.64-1.95-9.11-1.3-3.4.65-6.18,2.13-8.35,4.44-2.17,2.46-3.08,4.99-2.71,7.59.21,2.17.61,3.91,1.19,5.21.29.94,1.05,2.31,2.28,4.12,1.51,2.46,3.86,3.9,7.05,4.34,3.18.58,6.28.14,9.32-1.3,3.18-1.59,5.35-3.65,6.51-6.19,1.15-2.74,1.05-5.24-.33-7.48Z"/>
          <path class="cls-1" d="M1264.4,425.3c-13.23,18.36-36.29,28.48-69.19,30.36-1.66.1-3.16-.07-4.51-.54h-14.68c-.2,0-.4,0-.59-.01h-.09c-.17.01-.34.01-.51.01h-19.52c-.2,0-.41,0-.6-.01h-.08c-.17.01-.34.01-.52.01h-19.52c-.2,0-.4,0-.59-.01h-.09c-.17.01-.34.01-.51.01h-19.52c-.2,0-.4,0-.59-.01h-.09c-.17.01-.34.01-.51.01h-19.52c-.2,0-.4,0-.59-.01h-.09c-.17.01-.34.01-.51.01h-19.52c-.2,0-.4,0-.6-.01h-.08c-.17.01-.34.01-.52.01h-19.52c-.2,0-.4,0-.59-.01h-.09c-.17.01-.34.01-.51.01h-19.43c-.58.07-1.19.11-1.82.11-7.09.15-13.7-2.13-19.85-6.83-2.17-1.81-4.16-3.94-5.96-6.4l-1.3-1.95c-3.26,3.32-6.91,6.11-10.96,8.35-9.83,5.71-19.63,7.99-29.39,6.83-.73,0-1.42-.04-2.06-.11h-17.56c-.2,0-.4,0-.6-.01h-.08c-.17.01-.34.01-.52.01h-19.52c-.2,0-.4,0-.59-.01h-.09c-.17.01-.34.01-.51.01h-19.52c-.68,0-1.32-.03-1.93-.09-.54.06-1.09.09-1.65.09-4.41.15-9.72-2.1-15.94-6.72-3.28-3.54-5.86-6.99-7.74-10.38-3.62,3.88-7.95,7.23-12.97,10.05-9.26,5.35-20.1,8.57-32.53,9.65-21.19,1.81-38.61-1.66-52.27-10.41-5.06-3.25-9.04-7.01-11.93-11.27v.1c-9.11-12.29-11.43-25.88-6.94-40.77l.21-.33c1.88-6,4.92-11.45,9.11-16.37.65-1.01,1.34-1.84,2.06-2.5,3.91-4.19,8.28-7.62,13.13-10.3,2.09-1.15,4.33-1.59,6.72-1.3,2.31.07,4.16.8,5.53,2.17,2.39.36,4.19,1.34,5.42,2.93,1.37,1.52,1.81,3.29,1.3,5.31-.65,2.03-2.02,3.62-4.12,4.77-2.96,1.59-5.53,3.55-7.7,5.86-.5.65-.97,1.16-1.41,1.52-2.53,3.11-4.44,6.65-5.74,10.62l-.11.22c-.44,1.45-.76,2.89-.98,4.34-2.67,13.45,1.01,24.11,11.06,31.99,9.4,7.3,21.4,10.3,36.01,9,15.68-1.3,26.74-5.78,33.18-13.45,6.72-8.09,5.46-18.72-3.8-31.88-1.23-1.59-1.48-3.36-.76-5.31.73-1.95,2.25-3.47,4.56-4.56,3.32-1.66,6.51-1.69,9.54-.1,4.92-.8,8.03.79,9.33,4.77,3.9,4.55,5.89,10.3,5.96,17.24.02,1.58-.07,3.15-.28,4.71.49,2.05.96,4.51,1.42,7.38.76,4.74,3.09,8.95,7,12.63,2.45,1.88,5.53,2.82,9.21,2.82h59.83c.41-.07.82-.11,1.23-.11,3.32.15,7.95-.07,13.88-.65,3.32-.93,6.29-2.49,8.89-4.66,5.71-4.34,7.81-10.66,6.29-18.98-1.74-9.47-1.45-15.94.87-19.41.65-.86,2.2-1.55,4.66-2.06,2.24-.36,4.01-.43,5.31-.21.08.07.26.1.55.1,4.91-.28,7.62.98,8.13,3.8-.07,0-.07.04,0,.11.43,2.1.72,4.7.87,7.81.43,3.03.54,5.92.32,8.67.72,11.5,3.47,19.09,8.24,22.77,2.32,1.81,6.65,2.71,13.02,2.71.44,0,.85.04,1.25.11h160c16.77,0,29.71-2.17,38.82-6.5,5.71-3.26,10.27-7.27,13.67-12.04,4.41-6,6.79-13.48,7.15-22.45.37-9.32-1.91-15.9-6.83-19.73-4.33-3.4-8.93-4.16-13.77-2.28s-7.99,5.24-9.43,10.08c-1.45,4.12-1.09,8.46,1.08,13.02,2.31,4.55,6.11,8.45,11.39,11.71,1.88,1.23,2.96,2.82,3.25,4.77.14,1.95-.65,3.72-2.39,5.31-1.66,1.59-3.72,2.54-6.18,2.82-2.53.29-4.8-.11-6.83-1.19-7.73-4.77-13.23-10.59-16.48-17.46-3.4-7.01-3.98-14.17-1.74-21.47,1.52-4.63,3.69-8.68,6.51-12.15,6.14-7.22,13.7-11.38,22.66-12.47,8.53-1.01,16.05,1.05,22.56,6.18,8.02,6.29,12.72,15.33,14.1,27.11,1.52,12.51-1.56,24.01-9.22,34.49Z"/>
          <path class="cls-1" d="M1580.08,362.84c-.73-1.09-1.12-1.7-1.2-1.85,0-.07-.07-.61-.21-1.62-.37-2.68-1.85-4.67-4.45-5.97-2.6-1.52-5.64-1.95-9.11-1.3-3.4.65-6.18,2.13-8.35,4.45-2.17,2.46-3.07,4.99-2.71,7.59.22,2.17.62,3.9,1.19,5.2.29.94,1.05,2.32,2.28,4.12,1.52,2.46,3.87,3.91,7.05,4.34,3.18.58,6.29.15,9.33-1.3,3.18-1.59,5.35-3.65,6.5-6.18,1.16-2.75,1.05-5.24-.32-7.48ZM1547.22,362.84c-.72-1.09-1.12-1.7-1.19-1.85,0-.07-.08-.61-.22-1.62-.36-2.68-1.84-4.67-4.45-5.97-2.6-1.52-5.64-1.95-9.11-1.3-3.39.65-6.18,2.13-8.35,4.45-2.16,2.46-3.07,4.99-2.71,7.59.22,2.17.62,3.9,1.2,5.2.28.94,1.04,2.32,2.27,4.12,1.52,2.46,3.87,3.91,7.05,4.34,3.18.58,6.29.15,9.33-1.3,3.18-1.59,5.35-3.65,6.5-6.18,1.16-2.75,1.05-5.24-.32-7.48Z"/>
          <path class="cls-1" d="M1720.73,476.81c-.73-1.08-1.12-1.7-1.19-1.84,0-.08-.08-.62-.22-1.63-.36-2.68-1.85-4.66-4.45-5.96-2.6-1.52-5.64-1.96-9.11-1.31-3.4.65-6.18,2.14-8.35,4.45-2.17,2.46-3.07,4.99-2.71,7.59.22,2.17.62,3.91,1.19,5.21.29.93,1.05,2.31,2.28,4.12,1.52,2.45,3.87,3.9,7.05,4.33,3.18.58,6.29.15,9.33-1.3,3.18-1.59,5.35-3.65,6.5-6.18,1.16-2.75,1.05-5.24-.32-7.48ZM1753.59,476.81c-.73-1.08-1.13-1.7-1.2-1.84,0-.08-.07-.62-.21-1.63-.37-2.68-1.85-4.66-4.45-5.96-2.6-1.52-5.64-1.96-9.11-1.31-3.4.65-6.18,2.14-8.35,4.45-2.17,2.46-3.07,4.99-2.71,7.59.22,2.17.61,3.91,1.19,5.21.29.93,1.05,2.31,2.28,4.12,1.52,2.45,3.87,3.9,7.05,4.33,3.18.58,6.29.15,9.32-1.3,3.18-1.59,5.35-3.65,6.51-6.18,1.16-2.75,1.05-5.24-.32-7.48Z"/>
          <path class="cls-1" d="M1796.31,455.12h2.5c1.71,0,3.19-.26,4.46-.77-2.39.51-4.71.77-6.96.77Z"/>
          <path class="cls-1" d="M1892.28,398.08c-3.83-9.4-10.37-15.62-19.62-18.65-3.4-1.16-6.91-1.74-10.52-1.74-5.93,0-11.61,1.38-17.03,4.12-4.92,2.54-9.18,6.08-12.79,10.63-3.47,4.19-6.04,8.89-7.7,14.1-.65,2.46-1.16,4.95-1.52,7.48-2.46,8.82-5.75,14.86-9.87,18.11-2.6,2.24-5.57,3.8-8.89,4.66-1.88.37-3.91.62-6.08.76h-34.64c-.4-.07-.81-.11-1.25-.11-6.36,0-10.7-.9-13.01-2.71-4.78-3.68-7.52-11.27-8.24-22.77.21-2.75.1-5.64-.33-8.67-.15-3.11-.43-5.71-.87-7.81-.07-.07-.07-.11,0-.11-.5-2.82-3.22-4.08-8.13-3.8-.29,0-.47-.03-.54-.1-1.3-.22-3.08-.15-5.32.21-2.46.51-4.01,1.2-4.66,2.06-2.31,3.47-2.6,9.94-.87,19.41,1.52,8.32-.58,14.64-6.29,18.98-2.6,2.17-5.57,3.73-8.89,4.66-5.93.58-10.56.8-13.88.65-.41,0-.82.04-1.23.11h-100.11c-.4-.07-.81-.11-1.25-.11-6.36,0-10.7-.9-13.01-2.71-4.77-3.68-7.52-11.27-8.24-22.77.21-2.75.11-5.64-.33-8.67-.14-3.11-.43-5.71-.86-7.81-.08-.07-.08-.11,0-.11-.51-2.82-3.22-4.08-8.14-3.8-.29,0-.47-.03-.54-.1-1.3-.22-3.07-.15-5.31.21-2.46.51-4.02,1.2-4.67,2.06-2.31,3.47-2.6,9.94-.86,19.41,1.51,8.32-.58,14.64-6.29,18.98-2.61,2.17-5.57,3.73-8.9,4.66-5.93.58-10.55.8-13.88.65-.41,0-.82.04-1.23.11h-145.27l-6.84-.21c-7.44-1.16-11.2-5.21-11.27-12.15l-1.31-87.84c.94-8.96-1.59-13.23-7.59-12.79-.14-.08-1.15-.15-3.03-.22-.58,0-1.34.04-2.28.11-1.01.07-1.77.11-2.28.11-2.09-.08-4.16,1.26-6.18,4.01-1.81,2.46-2.71,4.44-2.71,5.96l3.9,92.94c.15,10.41,4.2,18.04,12.15,22.88,8.02,4.12,15.33,5.71,21.91,4.77,1.3,0,2.39-.05,3.27-.14.71.1,1.46.14,2.26.14h19.52c.17,0,.34,0,.51-.01h.09c.19.01.39.01.59.01h19.52c.17,0,.34,0,.51-.01h.09c.19.01.39.01.59.01h19.52c.17,0,.34,0,.51-.01h.09c.19.01.39.01.59.01h19.52c.18,0,.35,0,.52-.01h.08c.19.01.4.01.6.01h19.52c.17,0,.34,0,.51-.01h.09c.19.01.39.01.59.01h19.52c.17,0,.34,0,.51-.01h.09c.19.01.39.01.59.01h18.22c.64.07,1.33.11,2.06.11,9.76,1.16,19.56-1.12,29.39-6.83,4.05-2.24,7.7-5.03,10.95-8.35l1.3,1.95c1.81,2.46,3.8,4.59,5.97,6.4,6.14,4.7,12.76,6.98,19.84,6.83.76,0,1.49-.05,2.18-.17.48.04.99.06,1.51.06h19.52c.17,0,.34,0,.51-.01h.09c.19.01.39.01.59.01h19.52c.17,0,.34,0,.51-.01h.09c.19.01.39.01.59.01h19.52c.18,0,.35,0,.52-.01h.08c.19.01.4.01.6.01h19.52c.17,0,.34,0,.51-.01h.09c.19.01.39.01.59.01h17.57c.64.07,1.33.11,2.06.11,9.76,1.16,19.55-1.12,29.39-6.83,4.04-2.24,7.7-5.03,10.95-8.35l1.3,1.95c1.81,2.46,3.8,4.59,5.96,6.4,6.15,4.7,12.76,6.98,19.85,6.83.63,0,1.24-.04,1.83-.11h19.42c.18,0,.35,0,.52-.01h.08c.19.01.4.01.6.01h17.02c2.25,0,4.57-.26,6.96-.77,4.6-.99,9.48-2.94,14.62-5.84,3.98-2.39,7.56-5.14,10.74-8.25,4.12,6.29,9.65,10.6,16.59,12.91,3.4,1.16,6.9,1.73,10.52,1.73h.76c5.71,0,11.24-1.41,16.59-4.23,4.63-2.38,8.68-5.74,12.15-10.08,2.53-3.18,4.62-6.62,6.29-10.3.57-1.52,1.08-3.04,1.51-4.56,3.04-9.61,2.79-18.83-.76-27.65ZM1874.83,424.43c-.22.87-.51,1.7-.87,2.5-1.16,2.31-2.43,4.33-3.8,6.07-1.95,2.53-4.23,4.44-6.83,5.75-1.88,1.01-3.79,1.51-5.75,1.51-.94,0-1.91-.18-2.92-.54-4.42-1.37-7.7-4.73-9.87-10.08-2.39-6-2.57-12.33-.55-18.98,1.09-3.47,2.72-6.51,4.88-9.11,1.81-2.39,3.87-4.19,6.19-5.42,2.02-1.01,3.94-1.52,5.74-1.52,1.16,0,2.28.22,3.37.65,4.33,1.45,7.59,4.84,9.75,10.19,2.53,5.93,2.75,12.26.66,18.98Z"/>
        </g>
        <g>
          <path class="cls-1" d="M989.9,759.73c-5.36,0-9.44,2.3-12.38,6-2.93,3.7-4.33,8.8-4.33,14.54s1.4,10.72,4.33,14.42c2.94,3.7,7.28,6.12,13.15,6.12,6.38,0,11.35-2.42,15.05-8.8l-1.66-1.28c-2.93,4.21-6.25,6.64-11.73,6.64-3.58,0-6.26-1.66-8.3-4.47-1.91-2.8-2.93-6.76-2.93-11.35h25.39l.13-3.45c0-11.74-5.36-18.37-16.72-18.37ZM981.1,778.1c0-4.34.89-8.04,2.55-10.72,1.53-2.67,3.57-4.33,6.25-4.33,5.87,0,8.81,5.36,8.81,15.05h-17.61Z"/>
          <path class="cls-1" d="M966.17,798.26h1.66v1.66h-7.53c-2.94,0-4.72-.38-5.87-1.91-1.15-1.53-1.66-3.83-1.66-8.17v-16.71h-25.01v26.79h-7.53v-45.17c0-5.1-.89-8.42-5.86-8.42h-1.79v-1.66h7.65c2.81,0,4.85.39,6,1.79,1.15,1.53,1.53,4.21,1.53,8.29v15.06h25.01v-25.14h7.53v45.17c0,5.1.89,8.42,5.87,8.42Z"/>
          <path class="cls-1" d="M1098.1,795.71l.77,1.66c-.9.76-1.92,1.53-3.58,2.17-1.78.76-3.95,1.27-6.89,1.27-5.87,0-9.95-3.31-9.95-10.97v-25.9h-5.87v-3.32h5.87v-7.53l4.08-5.1h3.45v12.63h9.95v3.32h-9.95v25.9c0,5.1,1.91,7.53,5.87,7.53,2.93,0,4.59-.77,6.25-1.66Z"/>
          <path class="cls-1" d="M1207.45,778.1c1.66,2.17,2.42,4.72,2.42,7.79,0,4.72-1.66,8.54-4.59,11.22-3.06,2.68-7.4,4.21-12.76,4.21-4.59,0-9.31-1.02-12.89-2.68-3.7-1.78-6.25-4.46-6.25-7.52v-8.93h1.53c1.92,11.22,7.4,15.82,16.84,15.82,2.94,0,5.62-.77,7.66-2.17,2.04-1.41,3.32-3.57,3.32-6.38,0-4.98-3.06-7.91-9.19-11.61l-10.33-6c-7.15-4.34-9.83-8.17-9.83-14.42,0-4.34,1.79-7.91,4.59-10.46,2.81-2.43,6.77-3.83,11.74-3.83,4.09,0,8.68.9,12.12,2.68,3.45,1.66,5.87,4.34,5.87,7.4v8.93h-1.4c-2.04-11.23-7.14-15.69-16.59-15.69-2.42,0-4.97.89-6.76,2.3-1.79,1.4-2.93,3.57-2.93,6.25,0,2.42.63,4.21,2.29,5.87,1.53,1.66,3.96,3.31,6.89,5.1l10.34,6.13c3.57,2.04,6.25,3.82,7.91,5.99Z"/>
          <path class="cls-1" d="M1030.22,759.73c-2.68,0-5.1.25-7.4.64-2.3.51-4.21,1.27-5.23,2.29-2.04,2.05-2.04,4.6-2.04,7.53h3.83c1.14-5.48,4.46-7.14,9.18-7.14,2.43,0,4.6.76,6.25,2.68,1.54,2.16,2.56,5.86,2.56,11.61h-2.56c-5.74,0-10.97.63-14.92,2.42-3.96,1.79-6.38,4.72-6.38,9.32s1.91,7.52,4.33,9.31c2.43,1.66,5.36,2.42,7.79,2.42,6.38,0,9.95-2.55,11.74-4.72h.38l2.93,3.83h4.21v-22.58c0-7.53-1.78-12-4.46-14.55-2.81-2.42-6.51-3.06-10.21-3.06ZM1037.37,792.01c-1.79,2.55-3.96,4.98-8.04,4.98-2.04,0-4.09-.64-5.49-1.92-1.4-1.4-2.42-3.32-2.42-5.99,0-5.11,4.97-8.43,13.39-8.43h2.56v11.36Z"/>
          <path class="cls-1" d="M1062.88,746.46c1.15,1.53,1.54,4.21,1.54,8.29v45.17h-7.53v-45.17c0-5.1-.9-8.42-5.87-8.42h-1.66v-1.66h7.53c2.93,0,4.85.39,5.99,1.79Z"/>
          <path class="cls-1" d="M1137.78,774.79v25.13h-7.53v-25.13c0-4.09-1.14-7.02-2.8-8.81-1.79-1.66-4.09-2.42-6.38-2.42-3.32,0-6.25,2.04-8.42,4.33v32.03h-7.53v-45.17c0-5.1-.77-8.42-5.87-8.42h-1.66v-1.66h7.53c2.93,0,4.85.39,6,1.79,1.27,1.53,1.53,4.21,1.53,8.29v9.19c2.17-2.04,5.87-4.21,10.97-4.21,3.57,0,7.02.64,9.7,2.93,2.68,2.3,4.46,6.13,4.46,12.13Z"/>
          <path class="cls-1" d="M1280.82,759.73c-6,0-10.47,2.3-13.53,6-3.19,3.7-4.85,8.8-4.85,14.54s1.66,10.72,4.85,14.42c3.06,3.7,7.53,6.12,13.53,6.12s10.46-2.42,13.65-6.12,4.72-8.8,4.72-14.42-1.53-10.84-4.72-14.54c-3.19-3.7-7.91-6-13.65-6ZM1288.47,792.39c-1.91,3.07-4.59,4.98-7.65,4.98s-5.75-1.91-7.53-4.98c-1.92-3.06-2.94-7.4-2.94-12.12s1.02-9.19,2.94-12.25c1.78-3.06,4.46-4.97,7.53-4.97s5.74,1.91,7.65,4.97c1.79,3.06,2.81,7.4,2.81,12.25s-1.02,9.06-2.81,12.12Z"/>
          <path class="cls-1" d="M1239.73,759.73c-6.38,0-9.7,2.55-11.36,4.59h-.38c-.89-2.55-2.81-3.7-7.14-3.7h-7.53v1.66h1.66c5.1,0,5.87,3.32,5.87,8.29v45.3h7.52v-17.61c2.56,1.28,5.75,2.55,10.47,2.55,5.48,0,9.44-2.42,12.12-6.12,2.55-3.7,3.83-8.8,3.83-14.42s-1.28-10.84-3.83-14.54c-2.43-3.7-6.25-6-11.23-6ZM1244.32,792.39c-1.65,3.07-4.21,4.98-8.03,4.98-2.56,0-5.36-1.28-7.92-2.43v-26.79c.77-1.28,1.92-2.55,3.32-3.57,1.4-.9,3.19-1.53,5.49-1.53,3.32,0,5.74,1.91,7.4,4.97,1.53,3.06,2.17,7.4,2.17,12.25s-.64,9.06-2.43,12.12Z"/>
          <path class="cls-1" d="M1335.3,764.71l-3.45,2.55c-1.27-1.66-3.7-2.55-6.63-2.55-3.32,0-6.25,1.65-7.91,4.21v31h-7.66v-29.35c0-4.97-.76-8.29-5.74-8.29h-.89v-1.66h6.63c4.34,0,6.25,1.15,7.15,3.7h.51c1.66-2.04,4.97-4.59,9.95-4.59,1.66,0,3.83.38,5.1,1.27,1.15.9,1.92,2.05,2.94,3.71Z"/>
          <path class="cls-1" d="M1398.33,789.84c0,3.57-1.53,6.25-4.21,8.04-2.55,1.91-6.38,2.93-10.46,2.93-6.64,0-10.85-1.27-12.89-3.44-2.17-2.04-2.17-4.47-2.17-8.8h1.66c.89,5.48,4.59,8.8,11.74,8.8,6.38,0,9.18-2.43,9.18-5.87s-2.42-5.36-7.52-7.53l-4.98-2.04c-6.38-2.55-10.08-5.87-10.08-11.36,0-3.57,1.53-6.25,3.96-8.03,2.42-1.92,5.87-2.81,9.82-2.81,6.38,0,10.46,1.27,12.63,3.32,2.04,2.17,2.04,4.59,2.04,8.8h-1.65c-.9-5.36-4.6-8.8-11.23-8.8-5.49,0-8.42,2.55-8.42,5.87,0,2.93,2.42,5.35,6.63,7.14l5.1,2.04c7.15,2.94,10.85,6,10.85,11.74Z"/>
          <path class="cls-1" d="M1363.5,795.71l.76,1.66c-.89.76-1.91,1.53-3.57,2.17-1.79.76-3.96,1.27-6.89,1.27-5.87,0-9.95-3.31-9.95-10.97v-25.9h-5.87v-3.32h5.87v-7.53l4.08-5.1h3.45v12.63h9.95v3.32h-9.95v25.9c0,5.1,1.91,7.53,5.86,7.53,2.94,0,4.6-.77,6.26-1.66Z"/>
          <path class="cls-1" d="M1480.12,787.8c-2.68,5.23-6.13,8.55-9.83,10.84-3.83,2.17-8.16,2.94-13.27,2.94-7.91,0-14.42-3.19-18.88-8.29-4.47-5.11-7.02-12.25-7.02-20.16,0-8.42,2.94-15.95,7.66-21.31,4.59-5.49,11.1-8.81,18.24-8.81,9.32,0,16.21,3.07,19.27,6.64,2.17,2.68,2.17,7.53,2.17,12.63h-1.79c-2.04-10.97-7.78-15.95-17.1-15.95-5.48,0-10.46,1.66-14.16,5.87-3.7,4.21-5.99,10.85-5.99,20.93,0,6.25,1.53,12.5,4.72,17.22,3.31,4.72,8.29,7.91,15.43,7.91,8.43,0,14.17-4.08,18.89-11.74l1.66,1.28Z"/>
          <path class="cls-1" d="M1505.25,759.73c-5.99,0-10.46,2.3-13.52,6-3.19,3.7-4.85,8.8-4.85,14.54s1.66,10.72,4.85,14.42c3.06,3.7,7.53,6.12,13.52,6.12s10.47-2.42,13.66-6.12c3.19-3.7,4.72-8.8,4.72-14.42s-1.53-10.84-4.72-14.54c-3.19-3.7-7.91-6-13.66-6ZM1512.91,792.39c-1.91,3.07-4.59,4.98-7.66,4.98s-5.74-1.91-7.53-4.98c-1.91-3.06-2.93-7.4-2.93-12.12s1.02-9.19,2.93-12.25c1.79-3.06,4.47-4.97,7.53-4.97s5.75,1.91,7.66,4.97c1.79,3.06,2.81,7.4,2.81,12.25s-1.02,9.06-2.81,12.12Z"/>
          <path class="cls-1" d="M1739.77,798.26v1.66h-7.53c-3.82,0-7.01-2.55-9.44-6.63l-5.23-8.81-10.85,15.44h-4.21l13.4-18.88-7.27-12.12c-2.43-3.96-5.23-6.26-8.68-6.64v-1.66h7.15c3.83,0,7.01,2.55,9.44,6.64l5.23,8.8,10.85-15.44h4.21l-13.4,18.76,7.27,12.12c2.3,4.21,5.36,6.38,9.06,6.76Z"/>
          <path class="cls-1" d="M1650.58,746.46c1.15,1.53,1.54,4.21,1.54,8.29v45.17h-7.53v-45.17c0-5.1-.9-8.42-5.87-8.42h-1.66v-1.66h7.53c2.93,0,4.85.39,5.99,1.79Z"/>
          <path class="cls-1" d="M1679.04,759.73c-5.36,0-9.45,2.3-12.38,6-2.93,3.7-4.34,8.8-4.34,14.54s1.41,10.72,4.34,14.42c2.93,3.7,7.27,6.12,13.14,6.12,6.38,0,11.36-2.42,15.06-8.8l-1.66-1.28c-2.94,4.21-6.25,6.64-11.74,6.64-3.57,0-6.25-1.66-8.29-4.47-1.92-2.8-2.94-6.76-2.94-11.35h25.39l.13-3.45c0-11.74-5.36-18.37-16.71-18.37ZM1670.23,778.1c0-4.34.9-8.04,2.56-10.72,1.53-2.67,3.57-4.33,6.25-4.33,5.87,0,8.8,5.36,8.8,15.05h-17.61Z"/>
          <path class="cls-1" d="M1583.98,762.66c2.04,2.3,3.44,6.13,3.44,12.13v25.13h-7.52v-25.13c0-8.3-2.43-11.23-6.64-11.23-1.66,0-3.44.76-5.1,1.66-1.53,1.14-2.94,2.42-3.7,3.7.38,1.27.38,4.21.38,5.87v25.13h-7.53v-25.13c0-8.3-2.42-11.23-6.63-11.23-3.45,0-6.26,2.04-8.42,4.33v32.03h-7.53v-29.35c0-4.97-.77-8.29-5.87-8.29h-1.66v-1.66h7.53c4.34,0,6.25,1.28,7.14,3.32h.39c2.16-2.04,5.86-4.21,10.84-4.21,4.34,0,8.04,1.15,10.08,5.87,2.94-3.7,7.91-5.87,12.63-5.87,3.07,0,6,.64,8.17,2.93Z"/>
          <path class="cls-1" d="M1619.32,759.73c-6.38,0-9.69,2.55-11.35,4.59h-.39c-.89-2.55-2.8-3.7-7.14-3.7h-7.53v1.66h1.66c5.1,0,5.87,3.32,5.87,8.29v45.3h7.53v-17.61c2.55,1.28,5.74,2.55,10.46,2.55,5.49,0,9.44-2.42,12.12-6.12,2.55-3.7,3.83-8.8,3.83-14.42s-1.28-10.84-3.83-14.54c-2.42-3.7-6.25-6-11.23-6ZM1623.92,792.39c-1.66,3.07-4.21,4.98-8.04,4.98-2.55,0-5.36-1.28-7.91-2.43v-26.79c.76-1.28,1.91-2.55,3.31-3.57,1.41-.9,3.19-1.53,5.49-1.53,3.32,0,5.74,1.91,7.4,4.97,1.53,3.06,2.17,7.4,2.17,12.25s-.64,9.06-2.42,12.12Z"/>
        </g>
      </g>
    </g>
  </g>
</svg>